<?xml version="1.0" encoding="UTF-8" standalone="no"?>
<!-- Created with Inkscape (http://www.inkscape.org/) -->

<svg
   width="240mm"
   height="120mm"
   viewBox="0 0 240 120"
   version="1.1"
   id="svg8"
   inkscape:version="1.2.2 (b0a8486541, 2022-12-01)"
   sodipodi:docname="idea.svg"
   xmlns:inkscape="http://www.inkscape.org/namespaces/inkscape"
   xmlns:sodipodi="http://sodipodi.sourceforge.net/DTD/sodipodi-0.dtd"
   xmlns="http://www.w3.org/2000/svg"
   xmlns:svg="http://www.w3.org/2000/svg"
   xmlns:rdf="http://www.w3.org/1999/02/22-rdf-syntax-ns#"
   xmlns:cc="http://creativecommons.org/ns#"
   xmlns:dc="http://purl.org/dc/elements/1.1/">
  <defs
     id="defs2">
    <marker
       style="overflow:visible"
       id="marker7291"
       refX="0"
       refY="0"
       orient="auto-start-reverse"
       inkscape:stockid="Arrow5"
       markerWidth="5.8874264"
       markerHeight="6.6094756"
       viewBox="0 0 5.8874262 6.6094758"
       inkscape:isstock="true"
       inkscape:collect="always"
       preserveAspectRatio="xMidYMid">
      <path
         transform="scale(0.5)"
         style="fill:context-stroke;fill-rule:evenodd;stroke:context-stroke;stroke-width:1pt"
         d="m 6,0 c -3,1 -7,3 -9,5 0,0 0,-4 2,-5 -2,-1 -2,-5 -2,-5 2,2 6,4 9,5 z"
         id="path7289" />
    </marker>
    <marker
       style="overflow:visible"
       id="Arrow5"
       refX="0"
       refY="0"
       orient="auto-start-reverse"
       inkscape:stockid="Arrow5"
       markerWidth="5.8874264"
       markerHeight="6.6094756"
       viewBox="0 0 5.8874262 6.6094758"
       inkscape:isstock="true"
       inkscape:collect="always"
       preserveAspectRatio="xMidYMid">
      <path
         transform="scale(0.5)"
         style="fill:context-stroke;fill-rule:evenodd;stroke:context-stroke;stroke-width:1pt"
         d="m 6,0 c -3,1 -7,3 -9,5 0,0 0,-4 2,-5 -2,-1 -2,-5 -2,-5 2,2 6,4 9,5 z"
         id="path8893" />
    </marker>
    <inkscape:path-effect
       effect="bspline"
       id="path-effect953"
       is_visible="true"
       lpeversion="1"
       weight="33.333333"
       steps="2"
       helper_size="0"
       apply_no_weight="true"
       apply_with_weight="true"
       only_selected="false" />
    <inkscape:path-effect
       effect="bspline"
       id="path-effect953-3"
       is_visible="true"
       lpeversion="1"
       weight="33.333333"
       steps="2"
       helper_size="0"
       apply_no_weight="true"
       apply_with_weight="true"
       only_selected="false" />
    <inkscape:path-effect
       effect="bspline"
       id="path-effect953-3-3"
       is_visible="true"
       lpeversion="1"
       weight="33.333333"
       steps="2"
       helper_size="0"
       apply_no_weight="true"
       apply_with_weight="true"
       only_selected="false" />
    <inkscape:path-effect
       effect="bspline"
       id="path-effect953-3-3-9"
       is_visible="true"
       lpeversion="1"
       weight="33.333333"
       steps="2"
       helper_size="0"
       apply_no_weight="true"
       apply_with_weight="true"
       only_selected="false" />
    <inkscape:path-effect
       effect="bspline"
       id="path-effect953-3-3-9-0"
       is_visible="true"
       lpeversion="1"
       weight="33.333333"
       steps="2"
       helper_size="0"
       apply_no_weight="true"
       apply_with_weight="true"
       only_selected="false" />
    <inkscape:path-effect
       effect="bspline"
       id="path-effect953-3-3-9-0-0"
       is_visible="true"
       lpeversion="1"
       weight="33.333333"
       steps="2"
       helper_size="0"
       apply_no_weight="true"
       apply_with_weight="true"
       only_selected="false" />
    <inkscape:path-effect
       effect="bspline"
       id="path-effect953-3-9"
       is_visible="true"
       lpeversion="1"
       weight="33.333333"
       steps="2"
       helper_size="0"
       apply_no_weight="true"
       apply_with_weight="true"
       only_selected="false" />
    <inkscape:path-effect
       effect="bspline"
       id="path-effect953-3-9-3"
       is_visible="true"
       lpeversion="1"
       weight="33.333333"
       steps="2"
       helper_size="0"
       apply_no_weight="true"
       apply_with_weight="true"
       only_selected="false" />
  </defs>
  <sodipodi:namedview
     id="base"
     pagecolor="#ffffff"
     bordercolor="#666666"
     borderopacity="1.0"
     inkscape:pageopacity="0.0"
     inkscape:pageshadow="2"
     inkscape:zoom="0.99437388"
     inkscape:cx="408.29713"
     inkscape:cy="425.89614"
     inkscape:document-units="mm"
     inkscape:current-layer="layer1"
     showgrid="false"
     showborder="true"
     width="200mm"
     showguides="true"
     inkscape:guide-bbox="true"
     inkscape:window-width="1444"
     inkscape:window-height="1080"
     inkscape:window-x="0"
     inkscape:window-y="0"
     inkscape:window-maximized="0"
     inkscape:showpageshadow="2"
     inkscape:pagecheckerboard="0"
     inkscape:deskcolor="#d1d1d1"
     inkscape:lockguides="true">
    <inkscape:grid
       type="xygrid"
       id="grid815"
       units="mm"
       spacingx="10"
       spacingy="10"
       empspacing="4"
       dotted="false" />
  </sodipodi:namedview>
  <metadata
     id="metadata5">
    <rdf:RDF>
      <cc:Work
         rdf:about="">
        <dc:format>image/svg+xml</dc:format>
        <dc:type
           rdf:resource="http://purl.org/dc/dcmitype/StillImage" />
        <dc:title />
      </cc:Work>
    </rdf:RDF>
  </metadata>
  <g
     inkscape:label="Layer 1"
     inkscape:groupmode="layer"
     id="layer1"
     transform="translate(0,-177)">
    <rect
       style="fill:none;stroke:#000000;stroke-width:0.5;stroke-linejoin:round;stroke-miterlimit:6.2;stroke-dasharray:none;stroke-opacity:1"
       id="rect183"
       width="22.93338"
       height="25.560827"
       x="34.032593"
       y="201.44035" />
    <path
       style="fill:none;stroke:#000000;stroke-width:0.264583px;stroke-linecap:butt;stroke-linejoin:miter;stroke-opacity:1"
       d="m 38.777619,220.20657 c 0.386773,-0.3616 1.160308,-1.08479 1.979998,-1.3293 0.819691,-0.2445 1.685198,-0.0104 2.065725,0.36636 0.380526,0.37679 0.27641,0.89614 4.99e-4,1.27629 -0.275912,0.38015 -0.723731,0.62133 -1.056109,0.79601 -0.332378,0.17467 -0.549307,0.28283 -0.642127,0.45321 -0.09282,0.17038 -0.06146,0.40262 -0.04581,0.69855 0.01566,0.29592 0.01566,0.65555 0.479209,0.72111 0.46355,0.0656 1.390427,-0.16264 1.826328,-0.0317 0.435901,0.1309 0.381025,0.62062 0.127909,1.07415 -0.253116,0.45352 -0.704485,0.87109 -1.361571,1.17889 -0.657085,0.30781 -1.520023,0.50588 -2.184861,0.42884 -0.664838,-0.077 -1.131645,-0.42944 -1.329078,-0.89069 -0.197434,-0.46125 -0.125166,-1.03131 -0.297112,-1.48232 -0.171947,-0.45102 -0.588407,-0.78296 -0.620911,-1.24612 -0.03251,-0.46317 0.319286,-1.05736 0.495208,-1.35451 0.175921,-0.29714 0.175925,-0.29714 0.562698,-0.65874 z"
       id="path951"
       inkscape:path-effect="#path-effect953"
       inkscape:original-d="m 38.390846,220.56817 c 0.773799,-0.72293 1.547334,-1.44612 2.320605,-2.16957 0.865808,0.23435 1.731317,0.46842 2.596578,0.70224 -0.103855,0.51964 -0.207971,1.03899 -0.312354,1.55809 -0.447574,0.24146 -0.895394,0.48264 -1.343489,0.72356 -0.216672,0.10843 -0.4336,0.21659 -0.650798,0.32448 0.03162,0.23252 0.06298,0.46476 0.09407,0.69674 2.64e-4,0.3599 2.64e-4,0.71953 0,1.0789 0.927178,-0.22794 1.854054,-0.45614 2.780683,-0.6846 -0.05461,0.48999 -0.109488,0.97971 -0.164628,1.46916 -0.451127,0.41785 -0.902499,0.83541 -1.354146,1.25272 -0.862706,0.19834 -1.725643,0.39641 -2.588861,0.59421 -0.466561,-0.35215 -0.933367,-0.70455 -1.400448,-1.05722 0.07254,-0.56983 0.144805,-1.13989 0.216811,-1.71023 -0.416216,-0.3317 -0.832679,-0.66364 -1.249415,-0.99586 0.352067,-0.59395 0.703856,-1.18815 1.055388,-1.78262 z" />
    <path
       style="fill:none;stroke:#000000;stroke-width:0.264583px;stroke-linecap:butt;stroke-linejoin:miter;stroke-opacity:1"
       d="m 36.331516,209.62586 2.289002,-3.72105 2.530433,2.64619 -0.862832,2.52786 z"
       id="path955" />
    <rect
       style="fill:none;stroke:#000000;stroke-width:0.5;stroke-linejoin:round;stroke-miterlimit:6.2;stroke-dasharray:none;stroke-opacity:1"
       id="rect183-6"
       width="22.93338"
       height="25.560827"
       x="61.768803"
       y="201.35754" />
    <path
       style="fill:none;stroke:#000000;stroke-width:0.264583px;stroke-linecap:butt;stroke-linejoin:miter;stroke-opacity:1"
       d="m 76.150927,213.81577 c 0.386773,-0.3616 1.160308,-1.08479 1.979998,-1.3293 0.819691,-0.2445 1.685198,-0.0104 2.065725,0.36636 0.380526,0.37679 0.27641,0.89614 4.99e-4,1.27629 -0.275912,0.38015 -0.723731,0.62133 -1.056109,0.79601 -0.332378,0.17467 -0.549307,0.28283 -0.642127,0.45321 -0.09282,0.17038 -0.06146,0.40262 -0.04581,0.69855 0.01566,0.29592 0.01566,0.65555 0.479209,0.72111 0.46355,0.0656 1.390427,-0.16264 1.826328,-0.0317 0.435901,0.1309 0.381025,0.62062 0.127909,1.07415 -0.253116,0.45352 -0.704485,0.87109 -1.361571,1.17889 -0.657085,0.30781 -1.520023,0.50588 -2.184861,0.42884 -0.664838,-0.077 -1.131645,-0.42944 -1.329078,-0.89069 -0.197434,-0.46125 -0.125166,-1.03131 -0.297112,-1.48232 -0.171947,-0.45102 -0.588407,-0.78296 -0.620911,-1.24612 -0.0325,-0.46317 0.319286,-1.05736 0.495208,-1.35451 0.175921,-0.29714 0.175925,-0.29714 0.562698,-0.65874 z"
       id="path951-7"
       inkscape:path-effect="#path-effect953-3"
       inkscape:original-d="m 75.764154,214.17737 c 0.773799,-0.72293 1.547334,-1.44612 2.320605,-2.16957 0.865808,0.23435 1.731317,0.46842 2.596578,0.70224 -0.103855,0.51964 -0.207971,1.03899 -0.312354,1.55809 -0.447574,0.24146 -0.895394,0.48264 -1.343489,0.72356 -0.216672,0.10843 -0.4336,0.21659 -0.650798,0.32448 0.03162,0.23252 0.06298,0.46476 0.09407,0.69674 2.64e-4,0.3599 2.64e-4,0.71953 0,1.0789 0.927178,-0.22794 1.854054,-0.45614 2.780683,-0.6846 -0.05461,0.48999 -0.109488,0.97971 -0.164628,1.46916 -0.451127,0.41785 -0.902499,0.83541 -1.354146,1.25272 -0.862706,0.19834 -1.725643,0.39641 -2.588861,0.59421 -0.466561,-0.35215 -0.933367,-0.70455 -1.400448,-1.05722 0.07254,-0.56983 0.144805,-1.13989 0.216811,-1.71023 -0.416216,-0.3317 -0.832679,-0.66364 -1.249415,-0.99586 0.352067,-0.59395 0.703856,-1.18815 1.055388,-1.78262 z" />
    <path
       style="fill:none;stroke:#000000;stroke-width:0.264583px;stroke-linecap:butt;stroke-linejoin:miter;stroke-opacity:1"
       d="m 66.514419,209.80912 2.289002,-3.72105 2.530433,2.64619 -0.862832,2.52786 z"
       id="path955-5" />
    <rect
       style="fill:none;stroke:#000000;stroke-width:0.5;stroke-linejoin:round;stroke-miterlimit:6.2;stroke-dasharray:none;stroke-opacity:1"
       id="rect183-6-5"
       width="22.93338"
       height="25.560827"
       x="88.968246"
       y="201.30244" />
    <path
       style="fill:none;stroke:#000000;stroke-width:0.264583px;stroke-linecap:butt;stroke-linejoin:miter;stroke-opacity:1"
       d="m 99.504673,219.16544 c 0.386772,-0.3616 1.160307,-1.08479 1.979997,-1.3293 0.81969,-0.2445 1.6852,-0.0104 2.06572,0.36636 0.38053,0.37679 0.27642,0.89614 5e-4,1.27629 -0.27591,0.38015 -0.72373,0.62133 -1.05611,0.79601 -0.33237,0.17467 -0.5493,0.28283 -0.64212,0.45321 -0.0928,0.17038 -0.0614,0.40262 -0.0458,0.69855 0.0157,0.29592 0.0157,0.65555 0.47921,0.72111 0.46355,0.0656 1.39043,-0.16264 1.82633,-0.0317 0.4359,0.13091 0.38103,0.62063 0.12791,1.07416 -0.25311,0.45352 -0.70448,0.87109 -1.36157,1.17889 -0.65709,0.30781 -1.52002,0.50588 -2.18486,0.42884 -0.66484,-0.077 -1.131647,-0.42944 -1.32908,-0.89069 -0.197434,-0.46125 -0.125166,-1.03131 -0.297112,-1.48232 -0.171947,-0.45102 -0.588407,-0.78296 -0.620911,-1.24612 -0.03251,-0.46317 0.319286,-1.05736 0.495208,-1.35451 0.175921,-0.29714 0.175895,-0.29714 0.562668,-0.65874 z"
       id="path951-7-6"
       inkscape:path-effect="#path-effect953-3-3"
       inkscape:original-d="m 99.1179,219.52704 c 0.773799,-0.72293 1.54733,-1.44612 2.3206,-2.16957 0.86581,0.23435 1.73132,0.46842 2.59658,0.70224 -0.10385,0.51964 -0.20797,1.03899 -0.31235,1.55809 -0.44758,0.24146 -0.8954,0.48264 -1.34349,0.72356 -0.21667,0.10843 -0.4336,0.21659 -0.6508,0.32448 0.0316,0.23252 0.063,0.46476 0.0941,0.69674 2.7e-4,0.3599 2.7e-4,0.71953 0,1.0789 0.92718,-0.22794 1.85406,-0.45614 2.78068,-0.6846 -0.0546,0.48999 -0.10948,0.97971 -0.16462,1.46916 -0.45113,0.41785 -0.9025,0.83541 -1.35415,1.25272 -0.86271,0.19834 -1.72564,0.39641 -2.58886,0.59421 -0.46656,-0.35215 -0.933367,-0.70455 -1.400448,-1.05722 0.07254,-0.56983 0.144805,-1.13989 0.216811,-1.71023 -0.416216,-0.3317 -0.832679,-0.66364 -1.249415,-0.99586 0.352067,-0.59395 0.703856,-1.18815 1.055388,-1.78262 z" />
    <path
       style="fill:none;stroke:#000000;stroke-width:0.264583px;stroke-linecap:butt;stroke-linejoin:miter;stroke-opacity:1"
       d="m 97.166665,209.88707 2.289002,-3.72105 2.530433,2.64619 -0.86283,2.52786 z"
       id="path955-5-2" />
    <rect
       style="fill:none;stroke:#000000;stroke-width:0.5;stroke-linejoin:round;stroke-miterlimit:6.2;stroke-dasharray:none;stroke-opacity:1"
       id="rect183-6-5-1"
       width="22.93338"
       height="25.560827"
       x="129.76324"
       y="201.15746" />
    <path
       style="fill:none;stroke:#000000;stroke-width:0.264583px;stroke-linecap:butt;stroke-linejoin:miter;stroke-opacity:1"
       d="m 134.72965,216.22454 c 0.38678,-0.3616 1.16031,-1.08479 1.98,-1.3293 0.81969,-0.2445 1.6852,-0.0104 2.06572,0.36636 0.38053,0.37679 0.27642,0.89614 5e-4,1.27629 -0.27591,0.38015 -0.72373,0.62133 -1.05611,0.79601 -0.33237,0.17467 -0.5493,0.28283 -0.64212,0.45321 -0.0928,0.17038 -0.0615,0.40262 -0.0458,0.69855 0.0157,0.29592 0.0157,0.65555 0.47921,0.72111 0.46355,0.0656 1.39042,-0.16264 1.82633,-0.0317 0.4359,0.1309 0.38103,0.62062 0.12791,1.07415 -0.25311,0.45352 -0.70448,0.87109 -1.36157,1.17889 -0.65709,0.30781 -1.52002,0.50588 -2.18486,0.42884 -0.66484,-0.077 -1.13165,-0.42944 -1.32908,-0.89069 -0.19744,-0.46124 -0.12517,-1.03131 -0.29711,-1.48232 -0.17195,-0.45102 -0.58841,-0.78297 -0.62092,-1.24612 -0.0325,-0.46316 0.31929,-1.05736 0.49521,-1.35451 0.17592,-0.29714 0.1759,-0.29714 0.56267,-0.65874 z"
       id="path951-7-6-2"
       inkscape:path-effect="#path-effect953-3-3-9"
       inkscape:original-d="m 134.34288,216.58614 c 0.7738,-0.72293 1.54733,-1.44612 2.3206,-2.16957 0.86581,0.23435 1.73132,0.46842 2.59658,0.70224 -0.10385,0.51964 -0.20797,1.03899 -0.31235,1.55809 -0.44758,0.24146 -0.8954,0.48264 -1.34349,0.72356 -0.21667,0.10843 -0.4336,0.21659 -0.6508,0.32448 0.0316,0.23252 0.063,0.46476 0.0941,0.69674 2.6e-4,0.3599 2.6e-4,0.71953 0,1.0789 0.92718,-0.22794 1.85405,-0.45614 2.78068,-0.6846 -0.0546,0.48999 -0.10948,0.97971 -0.16462,1.46916 -0.45113,0.41785 -0.9025,0.83541 -1.35415,1.25272 -0.86271,0.19834 -1.72564,0.39641 -2.58886,0.59421 -0.46656,-0.35215 -0.93337,-0.70455 -1.40045,-1.05722 0.0725,-0.56983 0.14481,-1.13989 0.21681,-1.71023 -0.41621,-0.3317 -0.83268,-0.66364 -1.24941,-0.99586 0.35206,-0.59395 0.70385,-1.18815 1.05538,-1.78262 z" />
    <path
       style="fill:none;stroke:#000000;stroke-width:0.264583px;stroke-linecap:butt;stroke-linejoin:miter;stroke-opacity:1"
       d="m 146.96682,209.80913 2.289,-3.72105 2.53043,2.64619 -0.86283,2.52786 z"
       id="path955-5-2-7" />
    <rect
       style="fill:none;stroke:#000000;stroke-width:0.5;stroke-linejoin:round;stroke-miterlimit:6.2;stroke-dasharray:none;stroke-opacity:1"
       id="rect183-6-5-1-9"
       width="22.93338"
       height="25.560827"
       x="156.34424"
       y="200.99739" />
    <path
       style="fill:none;stroke:#000000;stroke-width:0.264583px;stroke-linecap:butt;stroke-linejoin:miter;stroke-opacity:1"
       d="m 161.94363,216.0229 c 0.38678,-0.3616 1.16031,-1.08479 1.98,-1.3293 0.81969,-0.2445 1.6852,-0.0104 2.06572,0.36636 0.38053,0.37679 0.27642,0.89614 5e-4,1.27629 -0.27591,0.38015 -0.72373,0.62133 -1.05611,0.79601 -0.33237,0.17467 -0.5493,0.28283 -0.64212,0.45321 -0.0928,0.17038 -0.0615,0.40262 -0.0458,0.69855 0.0157,0.29592 0.0157,0.65555 0.47921,0.72111 0.46355,0.0656 1.39042,-0.16264 1.82633,-0.0317 0.4359,0.1309 0.38103,0.62062 0.12791,1.07415 -0.25311,0.45352 -0.70448,0.87109 -1.36157,1.17889 -0.65709,0.30781 -1.52002,0.50588 -2.18486,0.42884 -0.66484,-0.077 -1.13165,-0.42944 -1.32908,-0.89069 -0.19744,-0.46124 -0.12517,-1.03131 -0.29711,-1.48232 -0.17195,-0.45102 -0.58841,-0.78297 -0.62092,-1.24612 -0.0325,-0.46316 0.31929,-1.05736 0.49521,-1.35451 0.17592,-0.29714 0.1759,-0.29714 0.56267,-0.65874 z"
       id="path951-7-6-2-3"
       inkscape:path-effect="#path-effect953-3-3-9-0"
       inkscape:original-d="m 161.55686,216.3845 c 0.7738,-0.72293 1.54733,-1.44612 2.3206,-2.16957 0.86581,0.23435 1.73132,0.46842 2.59658,0.70224 -0.10385,0.51964 -0.20797,1.03899 -0.31235,1.55809 -0.44758,0.24146 -0.8954,0.48264 -1.34349,0.72356 -0.21667,0.10843 -0.4336,0.21659 -0.6508,0.32448 0.0316,0.23252 0.063,0.46476 0.0941,0.69674 2.6e-4,0.3599 2.6e-4,0.71953 0,1.0789 0.92718,-0.22794 1.85405,-0.45614 2.78068,-0.6846 -0.0546,0.48999 -0.10948,0.97971 -0.16462,1.46916 -0.45113,0.41785 -0.9025,0.83541 -1.35415,1.25272 -0.86271,0.19834 -1.72564,0.39641 -2.58886,0.59421 -0.46656,-0.35215 -0.93337,-0.70455 -1.40045,-1.05722 0.0725,-0.56983 0.14481,-1.13989 0.21681,-1.71023 -0.41621,-0.3317 -0.83268,-0.66364 -1.24941,-0.99586 0.35206,-0.59395 0.70385,-1.18815 1.05538,-1.78262 z" />
    <path
       style="fill:none;stroke:#000000;stroke-width:0.264583px;stroke-linecap:butt;stroke-linejoin:miter;stroke-opacity:1"
       d="m 176.27878,209.78263 2.289,-3.72105 2.53043,2.64619 -0.86283,2.52786 z"
       id="path955-5-2-7-6" />
    <rect
       style="fill:none;stroke:#000000;stroke-width:0.5;stroke-linejoin:round;stroke-miterlimit:6.2;stroke-dasharray:none;stroke-opacity:1"
       id="rect183-6-5-1-9-6"
       width="22.93338"
       height="25.560827"
       x="183.63487"
       y="200.87526" />
    <path
       style="fill:none;stroke:#000000;stroke-width:0.264583px;stroke-linecap:butt;stroke-linejoin:miter;stroke-opacity:1"
       d="m 193.52273,207.94331 c 0.38678,-0.3616 1.16031,-1.08479 1.98,-1.3293 0.81969,-0.2445 1.6852,-0.0104 2.06572,0.36636 0.38053,0.37679 0.27642,0.89614 5e-4,1.27629 -0.27591,0.38015 -0.72373,0.62133 -1.05611,0.79601 -0.33237,0.17467 -0.5493,0.28283 -0.64212,0.45321 -0.0928,0.17038 -0.0615,0.40262 -0.0458,0.69855 0.0157,0.29592 0.0157,0.65555 0.47921,0.72111 0.46355,0.0656 1.39042,-0.16264 1.82633,-0.0317 0.4359,0.1309 0.38103,0.62062 0.12791,1.07415 -0.25311,0.45352 -0.70448,0.87109 -1.36157,1.17889 -0.65709,0.30781 -1.52002,0.50588 -2.18486,0.42884 -0.66484,-0.077 -1.13165,-0.42944 -1.32908,-0.89069 -0.19744,-0.46124 -0.12517,-1.03131 -0.29711,-1.48232 -0.17195,-0.45102 -0.58841,-0.78297 -0.62092,-1.24612 -0.0325,-0.46316 0.31929,-1.05736 0.49521,-1.35451 0.17592,-0.29714 0.1759,-0.29714 0.56267,-0.65874 z"
       id="path951-7-6-2-3-2"
       inkscape:path-effect="#path-effect953-3-3-9-0-0"
       inkscape:original-d="m 193.13596,208.30491 c 0.7738,-0.72293 1.54733,-1.44612 2.3206,-2.16957 0.86581,0.23435 1.73132,0.46842 2.59658,0.70224 -0.10385,0.51964 -0.20797,1.03899 -0.31235,1.55809 -0.44758,0.24146 -0.8954,0.48264 -1.34349,0.72356 -0.21667,0.10843 -0.4336,0.21659 -0.6508,0.32448 0.0316,0.23252 0.063,0.46476 0.0941,0.69674 2.6e-4,0.3599 2.6e-4,0.71953 0,1.0789 0.92718,-0.22794 1.85405,-0.45614 2.78068,-0.6846 -0.0546,0.48999 -0.10948,0.97971 -0.16462,1.46916 -0.45113,0.41785 -0.9025,0.83541 -1.35415,1.25272 -0.86271,0.19834 -1.72564,0.39641 -2.58886,0.59421 -0.46656,-0.35215 -0.93337,-0.70455 -1.40045,-1.05722 0.0725,-0.56983 0.14481,-1.13989 0.21681,-1.71023 -0.41621,-0.3317 -0.83268,-0.66364 -1.24941,-0.99586 0.35206,-0.59395 0.70385,-1.18815 1.05538,-1.78262 z" />
    <text
       xml:space="preserve"
       style="font-size:10.5833px;line-height:1.25;font-family:'Helvetica Light';-inkscape-font-specification:'Helvetica Light, ';stroke-width:0.264583"
       x="117.9609"
       y="214.57188"
       id="text1109"><tspan
         sodipodi:role="line"
         id="tspan1107"
         style="stroke-width:0.264583"
         x="117.9609"
         y="214.57188">...</tspan></text>
    <rect
       style="fill:#ffffff;fill-opacity:1;stroke:none;stroke-width:0.499999;stroke-linejoin:round;stroke-miterlimit:6.2;stroke-dasharray:none;stroke-opacity:1"
       id="rect1295"
       width="3.0304315"
       height="6.4229555"
       x="179.53691"
       y="206.3716" />
    <text
       xml:space="preserve"
       style="font-size:5.29167px;line-height:1.25;font-family:'Helvetica Light';-inkscape-font-specification:'Helvetica Light, ';stroke-width:0.264583"
       x="43.539173"
       y="233.00063"
       id="text4599"><tspan
         sodipodi:role="line"
         id="tspan4597"
         style="font-size:5.29167px;stroke-width:0.264583"
         x="43.539173"
         y="233.00063">$t_0$</tspan></text>
    <text
       xml:space="preserve"
       style="font-size:5.29167px;line-height:1.25;font-family:'Helvetica Light';-inkscape-font-specification:'Helvetica Light, ';stroke-width:0.264583"
       x="71.070274"
       y="232.14809"
       id="text4599-1"><tspan
         sodipodi:role="line"
         id="tspan4597-8"
         style="font-size:5.29167px;stroke-width:0.264583"
         x="71.070274"
         y="232.14809">$t_1$</tspan></text>
    <rect
       style="fill:none;stroke:#000000;stroke-width:0.5;stroke-linejoin:round;stroke-miterlimit:6.2;stroke-dasharray:none;stroke-opacity:1"
       id="rect183-6-2"
       width="22.93338"
       height="25.560827"
       x="23.356714"
       y="260.92813" />
    <path
       style="fill:none;stroke:#000000;stroke-width:0.264583px;stroke-linecap:butt;stroke-linejoin:miter;stroke-opacity:1"
       d="m 28.10174,279.69435 c 0.386773,-0.3616 1.160308,-1.08479 1.979998,-1.3293 0.819691,-0.2445 1.685198,-0.0104 2.065725,0.36636 0.380526,0.37679 0.27641,0.89614 4.99e-4,1.27629 -0.275912,0.38015 -0.723731,0.62133 -1.056109,0.79601 -0.332378,0.17467 -0.549307,0.28283 -0.642127,0.45321 -0.09282,0.17038 -0.06146,0.40262 -0.0458,0.69855 0.01566,0.29592 0.01566,0.65555 0.479209,0.72111 0.46355,0.0656 1.390427,-0.16264 1.826328,-0.0317 0.435901,0.1309 0.381025,0.62062 0.127909,1.07415 -0.253116,0.45352 -0.704485,0.87109 -1.361571,1.17889 -0.657085,0.30781 -1.520023,0.50588 -2.184861,0.42884 -0.664838,-0.077 -1.131645,-0.42944 -1.329078,-0.89069 -0.197434,-0.46125 -0.125166,-1.03131 -0.297112,-1.48232 -0.171947,-0.45102 -0.588407,-0.78296 -0.620911,-1.24612 -0.03251,-0.46317 0.319286,-1.05736 0.495208,-1.35451 0.175921,-0.29714 0.175925,-0.29714 0.562698,-0.65874 z"
       id="path951-7-2"
       inkscape:path-effect="#path-effect953-3-9"
       inkscape:original-d="m 27.714967,280.05595 c 0.773799,-0.72293 1.547334,-1.44612 2.320605,-2.16957 0.865808,0.23435 1.731317,0.46842 2.596578,0.70224 -0.103855,0.51964 -0.207971,1.03899 -0.312354,1.55809 -0.447574,0.24146 -0.895394,0.48264 -1.343489,0.72356 -0.216672,0.10843 -0.4336,0.21659 -0.650798,0.32448 0.03162,0.23252 0.06298,0.46476 0.09407,0.69674 2.64e-4,0.3599 2.64e-4,0.71953 0,1.0789 0.927178,-0.22794 1.854054,-0.45614 2.780683,-0.6846 -0.05461,0.48999 -0.109488,0.97971 -0.164628,1.46916 -0.451127,0.41785 -0.902499,0.83541 -1.354146,1.25272 -0.862706,0.19834 -1.725643,0.39641 -2.588861,0.59421 -0.466561,-0.35215 -0.933367,-0.70455 -1.400448,-1.05722 0.07254,-0.56983 0.144805,-1.13989 0.216811,-1.71023 -0.416216,-0.3317 -0.832679,-0.66364 -1.249415,-0.99586 0.352067,-0.59395 0.703856,-1.18815 1.055388,-1.78262 z" />
    <rect
       style="fill:none;stroke:#000000;stroke-width:0.5;stroke-linejoin:round;stroke-miterlimit:6.2;stroke-dasharray:none;stroke-opacity:1"
       id="rect183-6-2-6"
       width="22.93338"
       height="25.560827"
       x="51.829411"
       y="261.22122" />
    <path
       style="fill:none;stroke:#000000;stroke-width:0.264583px;stroke-linecap:butt;stroke-linejoin:miter;stroke-opacity:1"
       d="m 54.60536,269.21421 2.289002,-3.72105 2.530433,2.64619 -0.862832,2.52786 z"
       id="path955-5-8-2" />
    <rect
       style="fill:none;stroke:#000000;stroke-width:0.5;stroke-linejoin:round;stroke-miterlimit:6.2;stroke-dasharray:none;stroke-opacity:1"
       id="rect183-6-2-6-9"
       width="22.93338"
       height="25.560827"
       x="79.947861"
       y="260.99045" />
    <path
       style="fill:none;stroke:#000000;stroke-width:0.264583px;stroke-linecap:butt;stroke-linejoin:miter;stroke-opacity:1"
       d="m 85.668024,269.79851 2.289002,-3.72105 2.530433,2.64619 -0.862832,2.52786 z"
       id="path955-5-8-2-3" />
    <rect
       style="fill:none;stroke:#000000;stroke-width:0.5;stroke-linejoin:round;stroke-miterlimit:6.2;stroke-dasharray:none;stroke-opacity:1"
       id="rect183-6-2-6-9-1"
       width="22.93338"
       height="25.560827"
       x="108.89902"
       y="260.82141" />
    <path
       style="fill:none;stroke:#000000;stroke-width:0.264583px;stroke-linecap:butt;stroke-linejoin:miter;stroke-opacity:1"
       d="m 118.48649,269.78896 2.289,-3.72105 2.53043,2.64619 -0.86283,2.52786 z"
       id="path955-5-8-2-3-9" />
    <rect
       style="fill:none;stroke:#000000;stroke-width:0.5;stroke-linejoin:round;stroke-miterlimit:6.2;stroke-dasharray:none;stroke-opacity:1"
       id="rect183-6-2-6-9-1-4"
       width="22.93338"
       height="25.560827"
       x="137.77318"
       y="260.39102" />
    <path
       style="fill:none;stroke:#000000;stroke-width:0.264583px;stroke-linecap:butt;stroke-linejoin:miter;stroke-opacity:1"
       d="m 152.87456,269.18913 2.289,-3.72105 2.53043,2.64619 -0.86283,2.52786 z"
       id="path955-5-8-2-3-9-7" />
    <text
       xml:space="preserve"
       style="font-size:5.29167px;line-height:1.25;font-family:'Helvetica Light';-inkscape-font-specification:'Helvetica Light, ';stroke-width:0.264583"
       x="97.392883"
       y="232.41304"
       id="text4599-1-7"><tspan
         sodipodi:role="line"
         id="tspan4597-8-9"
         style="font-size:5.29167px;stroke-width:0.264583"
         x="97.392883"
         y="232.41304">$t_2$</tspan></text>
    <text
       xml:space="preserve"
       style="font-size:5.29167px;line-height:1.25;font-family:'Helvetica Light';-inkscape-font-specification:'Helvetica Light, ';stroke-width:0.264583"
       x="192.89192"
       y="231.35287"
       id="text4599-1-2"><tspan
         sodipodi:role="line"
         id="tspan4597-8-0"
         style="font-size:5.29167px;stroke-width:0.264583"
         x="192.89192"
         y="231.35287">$t_N$</tspan></text>
    <text
       xml:space="preserve"
       style="font-size:5.29167px;line-height:1.25;font-family:'Helvetica Light';-inkscape-font-specification:'Helvetica Light, ';stroke-width:0.264583"
       x="166.27998"
       y="232.38806"
       id="text4599-1-2-2"><tspan
         sodipodi:role="line"
         id="tspan4597-8-0-3"
         style="font-size:5.29167px;stroke-width:0.264583"
         x="166.27998"
         y="232.38806">$t_{N-1}$</tspan></text>
    <text
       xml:space="preserve"
       style="font-size:5.29167px;line-height:1.25;font-family:'Helvetica Light';-inkscape-font-specification:'Helvetica Light, ';stroke-width:0.264583"
       x="138.14525"
       y="232.42137"
       id="text4599-1-2-2-7"><tspan
         sodipodi:role="line"
         id="tspan4597-8-0-3-5"
         style="font-size:5.29167px;stroke-width:0.264583"
         x="138.14525"
         y="232.42137">$t_{N-2}$</tspan></text>
    <text
       xml:space="preserve"
       style="font-size:10.5833px;line-height:1.25;font-family:'Helvetica Light';-inkscape-font-specification:'Helvetica Light, ';stroke-width:0.264583"
       x="60.83255"
       y="261.16061"
       id="text4880"><tspan
         sodipodi:role="line"
         id="tspan4878"
         style="stroke-width:0.264583"
         x="60.83255"
         y="261.16061" /></text>
    <text
       xml:space="preserve"
       style="font-size:10.5833px;line-height:1.25;font-family:'Helvetica Light';-inkscape-font-specification:'Helvetica Light, ';stroke-width:0.264583"
       x="39.298512"
       y="252.4485"
       id="text7062"><tspan
         sodipodi:role="line"
         id="tspan7060"
         style="stroke-width:0.264583"
         x="39.298512"
         y="252.4485">main object</tspan></text>
    <text
       xml:space="preserve"
       style="font-size:10.5833px;line-height:1.25;font-family:'Helvetica Light';-inkscape-font-specification:'Helvetica Light, ';stroke-width:0.264583"
       x="47.460865"
       y="189.15974"
       id="text7066"><tspan
         sodipodi:role="line"
         id="tspan7064"
         style="stroke-width:0.264583"
         x="47.460865"
         y="189.15974">passing object</tspan></text>
    <path
       style="fill:none;stroke:#000000;stroke-width:0.264583px;stroke-linecap:butt;stroke-linejoin:miter;stroke-opacity:1;marker-end:url(#marker7291)"
       d="M 60.516521,191.48072 41.343878,205.86149"
       id="path7068" />
    <path
       style="fill:none;stroke:#000000;stroke-width:0.239779;stroke-linecap:butt;stroke-linejoin:miter;stroke-dasharray:none;stroke-opacity:1;marker-end:url(#Arrow5)"
       d="M 41.752851,244.3832 40.079402,228.32573"
       id="path7070" />
  </g>
</svg>
